<?xml version="1.0" standalone="no"?>
<!DOCTYPE svg PUBLIC "-//W3C//DTD SVG 20010904//EN"
 "http://www.w3.org/TR/2001/REC-SVG-20010904/DTD/svg10.dtd">
<svg version="1.0" xmlns="http://www.w3.org/2000/svg"
 width="1080.000000pt" height="971.000000pt" viewBox="0 0 1080.000000 971.000000"
 preserveAspectRatio="xMidYMid meet">

<g transform="translate(0.000000,971.000000) scale(0.100000,-0.100000)"
fill="#000000" stroke="none">
<path d="M2179 8951 c-74 -7 -103 -24 -125 -78 -32 -74 15 -136 113 -148 32
-4 299 -11 593 -15 l535 -7 75 -25 c188 -63 307 -134 426 -253 223 -224 347
-495 399 -872 24 -171 17 -587 -13 -753 -37 -201 -67 -315 -137 -504 -57 -157
-160 -350 -239 -447 -12 -14 -28 -37 -36 -49 -54 -84 -177 -197 -258 -237 -60
-29 52 -24 -1002 -51 -281 -7 -308 -10 -345 -29 -60 -31 -80 -58 -80 -108 0
-50 26 -84 90 -118 40 -22 42 -22 775 -22 l735 0 130 -63 c388 -189 532 -419
676 -1087 65 -303 61 -248 79 -1015 16 -676 23 -788 61 -935 47 -183 104 -313
186 -422 138 -183 488 -418 769 -516 169 -59 246 -71 459 -71 165 -1 202 2
279 22 205 52 518 202 643 308 60 51 74 90 48 131 -16 24 -21 25 -84 21 -60
-5 -84 -14 -206 -77 -211 -110 -262 -125 -425 -126 -131 0 -137 1 -200 31
-166 80 -292 261 -369 530 -57 198 -74 343 -86 749 -37 1262 -44 1337 -136
1600 -95 273 -188 438 -326 581 -87 90 -156 140 -273 199 -232 116 -399 152
-800 171 -173 8 -204 18 -231 79 -15 33 -16 49 -8 76 23 81 67 106 231 130
415 61 671 182 920 436 199 202 336 484 385 788 30 184 20 463 -24 655 -72
321 -242 634 -474 870 -370 376 -882 591 -1521 639 -147 12 -1105 20 -1209 12z"/>
<path d="M870 8878 c0 -85 -5 -83 200 -86 l180 -4 0 -23 c0 -20 -24 -35 -172
-110 -95 -47 -181 -94 -190 -102 -14 -12 -18 -32 -18 -80 0 -63 11 -78 36 -53
18 18 336 171 350 168 7 -2 27 -25 46 -53 45 -68 103 -97 195 -97 49 -1 81 5
113 20 78 37 103 67 126 154 16 62 19 270 4 299 -10 18 -26 19 -440 19 l-430
0 0 -52z m738 -145 c7 -116 -39 -179 -122 -169 -63 7 -88 40 -94 124 -7 106
-10 103 110 100 l103 -3 3 -52z"/>
<path d="M5655 8841 c-3 -2 -5 -48 -5 -102 0 -79 3 -98 16 -103 8 -3 482 -1
1053 5 1160 12 1101 15 1301 -58 384 -138 610 -331 773 -658 106 -213 156
-392 178 -639 6 -67 13 -141 17 -166 l7 -45 57 -3 c32 -2 67 2 79 9 l22 11 -5
864 c-2 524 -8 868 -14 873 -9 10 -3470 21 -3479 12z"/>
<path d="M872 7993 l3 -228 65 0 65 0 2 135 c4 198 -10 180 138 180 93 0 125
-3 126 -12 0 -7 2 -73 2 -146 2 -119 4 -135 21 -148 20 -14 92 -10 111 7 5 5
12 73 15 152 l5 142 84 3 c61 2 87 -1 92 -10 5 -7 9 -71 9 -143 0 -71 4 -136
9 -143 13 -21 82 -26 106 -9 19 14 20 29 23 217 2 144 0 206 -9 216 -10 12
-82 14 -440 14 l-429 0 2 -227z"/>
<path d="M870 7568 c0 -35 4 -68 8 -74 6 -9 84 -43 153 -67 11 -3 18 -23 22
-59 10 -78 8 -311 -2 -327 -5 -8 -47 -29 -92 -47 l-84 -32 -3 -66 c-3 -78 -3
-78 90 -41 100 39 240 92 281 106 20 7 37 17 37 21 0 4 8 8 18 8 18 0 85 23
162 57 25 11 89 35 143 53 125 43 147 62 147 129 0 38 -5 55 -21 70 -12 11
-94 43 -183 72 -89 29 -175 60 -192 70 -39 24 -213 93 -328 131 -50 16 -102
36 -117 44 -16 8 -30 14 -34 14 -3 0 -5 -28 -5 -62z m475 -257 c44 -18 100
-40 125 -50 55 -21 62 -44 21 -66 -57 -29 -275 -105 -288 -101 -17 7 -18 237
-2 253 13 13 31 8 144 -36z"/>
<path d="M7540 6866 c-4 -12 -11 -114 -15 -227 -13 -410 -36 -562 -104 -706
-113 -236 -285 -393 -500 -457 -48 -14 -133 -16 -672 -16 -565 0 -619 -1 -634
-17 -14 -14 -17 -33 -13 -115 2 -55 9 -103 15 -109 9 -9 183 -14 625 -19 509
-6 621 -10 658 -23 248 -84 402 -214 514 -435 68 -135 90 -265 106 -637 12
-306 14 -321 42 -336 26 -14 124 -7 141 10 15 15 16 390 3 1953 -9 1127 -9
1128 -30 1141 -12 8 -45 14 -74 15 -46 1 -54 -2 -62 -22z"/>
<path d="M877 6643 c-13 -12 -8 -348 5 -361 7 -7 31 -12 55 -12 56 0 63 15 63
134 0 91 1 96 23 101 12 3 173 6 358 7 374 3 369 2 369 69 0 72 17 69 -449 69
-230 0 -421 -3 -424 -7z"/>
<path d="M877 5743 c-13 -12 -8 -113 6 -118 6 -2 94 -5 194 -7 100 -2 184 -6
187 -9 3 -3 7 -54 9 -112 4 -128 15 -147 82 -147 24 0 48 6 54 14 8 9 11 53
10 124 -1 61 2 115 5 121 9 14 126 14 160 1 26 -9 26 -10 26 -122 0 -62 4
-119 9 -126 4 -8 26 -16 48 -19 33 -4 45 -1 62 16 21 21 21 29 19 204 l-3 182
-431 3 c-237 1 -434 -1 -437 -5z"/>
<path d="M870 5156 c0 -63 5 -69 104 -111 l71 -31 7 -50 c8 -64 10 -273 2
-312 -6 -28 -14 -34 -93 -65 l-86 -33 -3 -64 c-2 -34 1 -67 6 -72 6 -6 48 10
108 40 55 27 122 57 149 65 78 24 252 85 345 121 47 19 117 45 156 60 97 36
116 58 112 127 -4 64 6 59 -233 144 -88 31 -221 81 -295 110 -169 68 -324 125
-339 125 -7 0 -11 -21 -11 -54z m461 -247 c90 -35 173 -72 187 -84 19 -17 -1
-30 -109 -69 -52 -19 -118 -43 -147 -55 -45 -18 -53 -19 -57 -6 -3 8 -7 23
-10 32 -3 9 -3 61 1 116 l7 99 37 -6 c20 -3 61 -15 91 -27z"/>
<path d="M1628 4309 c-14 -7 -18 -23 -18 -62 0 -29 -5 -58 -12 -65 -9 -9 -105
-12 -370 -12 l-358 0 0 -55 c0 -45 4 -56 21 -66 14 -7 137 -13 358 -16 198 -3
341 -10 349 -16 7 -6 12 -35 12 -78 0 -78 6 -83 91 -77 l44 3 3 214 c2 149 -1
218 -9 227 -13 16 -86 18 -111 3z"/>
<path d="M1065 3720 l-190 -5 -3 -58 c-3 -54 -1 -58 23 -67 15 -6 99 -10 189
-10 113 0 166 -4 174 -12 18 -18 17 -292 -1 -307 -9 -6 -83 -12 -198 -13
l-184 -3 -3 -45 c-4 -80 -33 -75 434 -78 304 -2 420 0 430 9 9 7 14 31 14 64
l0 53 -65 7 c-36 3 -110 5 -165 4 -55 -2 -103 0 -106 4 -12 11 -16 127 -9 224
l7 93 166 2 167 3 3 73 3 72 -248 -2 c-136 -1 -333 -5 -438 -8z"/>
<path d="M898 2870 l-23 -6 -3 -198 c-3 -227 2 -246 62 -246 18 0 38 6 43 13
12 15 33 149 36 232 l2 60 126 3 126 3 7 -90 c12 -155 42 -221 104 -221 12 0
25 6 28 14 3 7 8 76 12 152 l7 139 84 3 c61 2 87 -1 92 -10 5 -7 9 -65 9 -128
0 -71 5 -124 13 -140 16 -32 73 -45 105 -24 22 14 22 18 22 217 0 111 -4 208
-9 216 -8 12 -78 14 -414 15 -223 1 -416 -1 -429 -4z"/>
<path d="M870 2161 c0 -36 5 -63 13 -70 8 -6 80 -12 188 -13 250 -4 249 -7
-101 -185 l-95 -48 -3 -72 c-2 -56 0 -73 10 -73 8 0 47 18 88 40 268 142 301
154 315 110 3 -10 20 -34 38 -54 91 -99 258 -102 354 -7 56 56 68 106 68 276
l0 150 -437 3 -438 2 0 -59z m728 -93 c17 -17 15 -111 -3 -154 -14 -35 -69
-69 -97 -60 -7 3 -25 7 -40 10 -16 4 -34 18 -42 34 -16 30 -25 150 -13 170 11
16 178 17 195 0z"/>
<path d="M985 1561 c-87 -54 -139 -149 -138 -251 1 -149 98 -249 241 -250 39
0 78 6 98 16 19 9 95 80 170 158 152 156 183 179 226 164 35 -13 48 -35 48
-86 0 -32 -8 -51 -39 -89 l-39 -50 40 -41 c22 -23 46 -42 53 -42 19 0 83 77
106 125 66 142 -45 334 -193 335 -10 0 -42 -9 -72 -20 -47 -18 -73 -40 -193
-167 -150 -158 -183 -181 -238 -163 -40 13 -62 44 -65 91 -5 64 0 78 45 129
48 54 49 62 8 132 -20 33 -20 33 -58 9z"/>
</g>
</svg>
